<mxfile host="app.diagrams.net" modified="2022-10-10T12:06:25.947Z" agent="5.0 (Windows NT 6.1; Win64; x64) AppleWebKit/537.36 (KHTML, like Gecko) Chrome/106.0.0.0 Safari/537.36" etag="GManSRrOqjyqRez_CSk0" version="20.4.0" type="github">
  <diagram id="kgpKYQtTHZ0yAKxKKP6v" name="Page-1">
    <mxGraphModel dx="1108" dy="450" grid="1" gridSize="10" guides="1" tooltips="1" connect="1" arrows="1" fold="1" page="1" pageScale="1" pageWidth="850" pageHeight="1100" math="0" shadow="0">
      <root>
        <mxCell id="0" />
        <mxCell id="1" parent="0" />
        <mxCell id="PKfGuQVn0fXjlFeVQHb7-2" value="手机端" style="shape=umlLifeline;perimeter=lifelinePerimeter;whiteSpace=wrap;html=1;container=1;collapsible=0;recursiveResize=0;outlineConnect=0;" parent="1" vertex="1">
          <mxGeometry x="80" y="60" width="100" height="1010" as="geometry" />
        </mxCell>
        <mxCell id="PKfGuQVn0fXjlFeVQHb7-9" value="" style="html=1;points=[];perimeter=orthogonalPerimeter;" parent="PKfGuQVn0fXjlFeVQHb7-2" vertex="1">
          <mxGeometry x="45" y="80" width="10" height="120" as="geometry" />
        </mxCell>
        <mxCell id="rP7UkFt_sAIfWVr7rBNn-2" value="" style="endArrow=classic;html=1;rounded=0;" edge="1" parent="PKfGuQVn0fXjlFeVQHb7-2" target="PKfGuQVn0fXjlFeVQHb7-6">
          <mxGeometry width="50" height="50" relative="1" as="geometry">
            <mxPoint x="55" y="110" as="sourcePoint" />
            <mxPoint x="105" y="60" as="targetPoint" />
          </mxGeometry>
        </mxCell>
        <mxCell id="rP7UkFt_sAIfWVr7rBNn-3" value="用户打开app调用&lt;br&gt;save_user_login接口" style="edgeLabel;html=1;align=center;verticalAlign=middle;resizable=0;points=[];" vertex="1" connectable="0" parent="rP7UkFt_sAIfWVr7rBNn-2">
          <mxGeometry x="-0.22" y="-5" relative="1" as="geometry">
            <mxPoint x="17" y="-25" as="offset" />
          </mxGeometry>
        </mxCell>
        <mxCell id="rP7UkFt_sAIfWVr7rBNn-11" value="" style="html=1;points=[];perimeter=orthogonalPerimeter;" vertex="1" parent="PKfGuQVn0fXjlFeVQHb7-2">
          <mxGeometry x="45" y="270" width="10" height="260" as="geometry" />
        </mxCell>
        <mxCell id="rP7UkFt_sAIfWVr7rBNn-12" value="" style="html=1;points=[];perimeter=orthogonalPerimeter;" vertex="1" parent="PKfGuQVn0fXjlFeVQHb7-2">
          <mxGeometry x="50" y="330" width="10" height="40" as="geometry" />
        </mxCell>
        <mxCell id="rP7UkFt_sAIfWVr7rBNn-16" value="用户首次合成3次" style="endArrow=classic;html=1;rounded=0;entryX=1;entryY=0.3;entryDx=0;entryDy=0;entryPerimeter=0;" edge="1" parent="PKfGuQVn0fXjlFeVQHb7-2" source="rP7UkFt_sAIfWVr7rBNn-11" target="rP7UkFt_sAIfWVr7rBNn-12">
          <mxGeometry width="50" height="50" relative="1" as="geometry">
            <mxPoint x="60" y="330" as="sourcePoint" />
            <mxPoint x="110" y="280" as="targetPoint" />
            <Array as="points">
              <mxPoint x="100" y="295" />
              <mxPoint x="100" y="342" />
            </Array>
          </mxGeometry>
        </mxCell>
        <mxCell id="rP7UkFt_sAIfWVr7rBNn-17" value="" style="html=1;points=[];perimeter=orthogonalPerimeter;" vertex="1" parent="PKfGuQVn0fXjlFeVQHb7-2">
          <mxGeometry x="50" y="420" width="10" height="40" as="geometry" />
        </mxCell>
        <mxCell id="PKfGuQVn0fXjlFeVQHb7-3" value="server" style="shape=umlLifeline;perimeter=lifelinePerimeter;whiteSpace=wrap;html=1;container=1;collapsible=0;recursiveResize=0;outlineConnect=0;" parent="1" vertex="1">
          <mxGeometry x="290" y="60" width="100" height="1020" as="geometry" />
        </mxCell>
        <mxCell id="PKfGuQVn0fXjlFeVQHb7-6" value="" style="html=1;points=[];perimeter=orthogonalPerimeter;" parent="PKfGuQVn0fXjlFeVQHb7-3" vertex="1">
          <mxGeometry x="45" y="90" width="10" height="110" as="geometry" />
        </mxCell>
        <mxCell id="rP7UkFt_sAIfWVr7rBNn-25" value="" style="html=1;points=[];perimeter=orthogonalPerimeter;" vertex="1" parent="PKfGuQVn0fXjlFeVQHb7-3">
          <mxGeometry x="45" y="460" width="10" height="80" as="geometry" />
        </mxCell>
        <mxCell id="PKfGuQVn0fXjlFeVQHb7-4" value="db_user_info" style="shape=umlLifeline;perimeter=lifelinePerimeter;whiteSpace=wrap;html=1;container=1;collapsible=0;recursiveResize=0;outlineConnect=0;" parent="1" vertex="1">
          <mxGeometry x="500" y="60" width="100" height="1020" as="geometry" />
        </mxCell>
        <mxCell id="rP7UkFt_sAIfWVr7rBNn-6" value="" style="html=1;points=[];perimeter=orthogonalPerimeter;" vertex="1" parent="PKfGuQVn0fXjlFeVQHb7-4">
          <mxGeometry x="45" y="110" width="10" height="80" as="geometry" />
        </mxCell>
        <mxCell id="rP7UkFt_sAIfWVr7rBNn-28" value="" style="html=1;points=[];perimeter=orthogonalPerimeter;" vertex="1" parent="PKfGuQVn0fXjlFeVQHb7-4">
          <mxGeometry x="45" y="480" width="10" height="80" as="geometry" />
        </mxCell>
        <mxCell id="PKfGuQVn0fXjlFeVQHb7-8" value="return" style="html=1;verticalAlign=bottom;endArrow=open;dashed=1;endSize=8;rounded=0;" parent="1" source="PKfGuQVn0fXjlFeVQHb7-6" target="PKfGuQVn0fXjlFeVQHb7-9" edge="1">
          <mxGeometry relative="1" as="geometry">
            <mxPoint x="265" y="226" as="targetPoint" />
            <mxPoint x="320" y="230" as="sourcePoint" />
            <Array as="points">
              <mxPoint x="230" y="230" />
            </Array>
          </mxGeometry>
        </mxCell>
        <mxCell id="rP7UkFt_sAIfWVr7rBNn-7" value="" style="endArrow=classic;html=1;rounded=0;" edge="1" parent="1" source="PKfGuQVn0fXjlFeVQHb7-6" target="rP7UkFt_sAIfWVr7rBNn-6">
          <mxGeometry width="50" height="50" relative="1" as="geometry">
            <mxPoint x="420" y="210" as="sourcePoint" />
            <mxPoint x="470" y="160" as="targetPoint" />
          </mxGeometry>
        </mxCell>
        <mxCell id="rP7UkFt_sAIfWVr7rBNn-8" value="保存/更新用户登录相关信息" style="edgeLabel;html=1;align=center;verticalAlign=middle;resizable=0;points=[];" vertex="1" connectable="0" parent="rP7UkFt_sAIfWVr7rBNn-7">
          <mxGeometry x="0.27" y="3" relative="1" as="geometry">
            <mxPoint x="-12" y="-7" as="offset" />
          </mxGeometry>
        </mxCell>
        <mxCell id="rP7UkFt_sAIfWVr7rBNn-23" value="" style="endArrow=classic;html=1;rounded=0;" edge="1" parent="1" target="rP7UkFt_sAIfWVr7rBNn-17">
          <mxGeometry width="50" height="50" relative="1" as="geometry">
            <mxPoint x="140" y="450" as="sourcePoint" />
            <mxPoint x="190" y="520" as="targetPoint" />
            <Array as="points">
              <mxPoint x="180" y="450" />
              <mxPoint x="180" y="500" />
            </Array>
          </mxGeometry>
        </mxCell>
        <mxCell id="rP7UkFt_sAIfWVr7rBNn-24" value="给用户弹窗&lt;br&gt;用户填写预留信息" style="edgeLabel;html=1;align=center;verticalAlign=middle;resizable=0;points=[];" vertex="1" connectable="0" parent="rP7UkFt_sAIfWVr7rBNn-23">
          <mxGeometry x="-0.1538" relative="1" as="geometry">
            <mxPoint as="offset" />
          </mxGeometry>
        </mxCell>
        <mxCell id="rP7UkFt_sAIfWVr7rBNn-26" value="" style="endArrow=classic;html=1;rounded=0;" edge="1" parent="1">
          <mxGeometry width="50" height="50" relative="1" as="geometry">
            <mxPoint x="135" y="546" as="sourcePoint" />
            <mxPoint x="335" y="546" as="targetPoint" />
          </mxGeometry>
        </mxCell>
        <mxCell id="rP7UkFt_sAIfWVr7rBNn-27" value="save_active_user_info&lt;br&gt;保存用户联系方式" style="edgeLabel;html=1;align=center;verticalAlign=middle;resizable=0;points=[];" vertex="1" connectable="0" parent="rP7UkFt_sAIfWVr7rBNn-26">
          <mxGeometry x="-0.24" y="3" relative="1" as="geometry">
            <mxPoint x="19" y="-13" as="offset" />
          </mxGeometry>
        </mxCell>
        <mxCell id="rP7UkFt_sAIfWVr7rBNn-29" value="" style="endArrow=classic;html=1;rounded=0;" edge="1" parent="1" source="rP7UkFt_sAIfWVr7rBNn-25" target="rP7UkFt_sAIfWVr7rBNn-28">
          <mxGeometry width="50" height="50" relative="1" as="geometry">
            <mxPoint x="380" y="600" as="sourcePoint" />
            <mxPoint x="430" y="550" as="targetPoint" />
          </mxGeometry>
        </mxCell>
        <mxCell id="rP7UkFt_sAIfWVr7rBNn-30" value="将联系方式更新至user_info表" style="edgeLabel;html=1;align=center;verticalAlign=middle;resizable=0;points=[];" vertex="1" connectable="0" parent="rP7UkFt_sAIfWVr7rBNn-29">
          <mxGeometry x="-0.16" y="1" relative="1" as="geometry">
            <mxPoint x="11" y="-9" as="offset" />
          </mxGeometry>
        </mxCell>
        <mxCell id="rP7UkFt_sAIfWVr7rBNn-54" style="edgeStyle=orthogonalEdgeStyle;rounded=0;orthogonalLoop=1;jettySize=auto;html=1;" edge="1" parent="1" source="rP7UkFt_sAIfWVr7rBNn-44" target="rP7UkFt_sAIfWVr7rBNn-55">
          <mxGeometry relative="1" as="geometry">
            <mxPoint x="875" y="260" as="targetPoint" />
          </mxGeometry>
        </mxCell>
        <mxCell id="rP7UkFt_sAIfWVr7rBNn-44" value="用户首次打开app&lt;br&gt;客户端调用save_user_login" style="html=1;dashed=0;rounded=1;absoluteArcSize=1;arcSize=20;verticalAlign=middle;align=center;" vertex="1" parent="1">
          <mxGeometry x="690" y="140" width="160" height="50" as="geometry" />
        </mxCell>
        <mxCell id="rP7UkFt_sAIfWVr7rBNn-45" value="*" style="text;resizeWidth=0;resizeHeight=0;points=[];part=1;verticalAlign=middle;align=center;" vertex="1" parent="rP7UkFt_sAIfWVr7rBNn-44">
          <mxGeometry x="1" y="0.5" width="20" height="20" relative="1" as="geometry">
            <mxPoint x="-20" y="-10" as="offset" />
          </mxGeometry>
        </mxCell>
        <mxCell id="rP7UkFt_sAIfWVr7rBNn-50" style="edgeStyle=orthogonalEdgeStyle;rounded=0;orthogonalLoop=1;jettySize=auto;html=1;" edge="1" parent="1" source="rP7UkFt_sAIfWVr7rBNn-46" target="rP7UkFt_sAIfWVr7rBNn-44">
          <mxGeometry relative="1" as="geometry" />
        </mxCell>
        <mxCell id="rP7UkFt_sAIfWVr7rBNn-46" value="" style="ellipse;fillColor=strokeColor;" vertex="1" parent="1">
          <mxGeometry x="755" y="40" width="30" height="30" as="geometry" />
        </mxCell>
        <mxCell id="rP7UkFt_sAIfWVr7rBNn-58" value="手机端" style="swimlane;" vertex="1" parent="1">
          <mxGeometry x="670" width="200" height="770" as="geometry" />
        </mxCell>
        <mxCell id="rP7UkFt_sAIfWVr7rBNn-102" style="edgeStyle=orthogonalEdgeStyle;rounded=0;orthogonalLoop=1;jettySize=auto;html=1;entryX=0.5;entryY=0;entryDx=0;entryDy=0;" edge="1" parent="rP7UkFt_sAIfWVr7rBNn-58" source="rP7UkFt_sAIfWVr7rBNn-97" target="rP7UkFt_sAIfWVr7rBNn-100">
          <mxGeometry relative="1" as="geometry" />
        </mxCell>
        <mxCell id="rP7UkFt_sAIfWVr7rBNn-97" value="用户首次合成3次活照片&lt;br&gt;自动弹窗" style="html=1;dashed=0;rounded=1;absoluteArcSize=1;arcSize=20;verticalAlign=middle;align=center;" vertex="1" parent="rP7UkFt_sAIfWVr7rBNn-58">
          <mxGeometry x="20" y="320" width="160" height="50" as="geometry" />
        </mxCell>
        <mxCell id="rP7UkFt_sAIfWVr7rBNn-98" value="*" style="text;resizeWidth=0;resizeHeight=0;points=[];part=1;verticalAlign=middle;align=center;" vertex="1" parent="rP7UkFt_sAIfWVr7rBNn-97">
          <mxGeometry x="1" y="0.5" width="20" height="20" relative="1" as="geometry">
            <mxPoint x="-20" y="-10" as="offset" />
          </mxGeometry>
        </mxCell>
        <mxCell id="rP7UkFt_sAIfWVr7rBNn-100" value="用户填写邮箱&lt;br&gt;点击提交" style="html=1;dashed=0;rounded=1;absoluteArcSize=1;arcSize=20;verticalAlign=middle;align=center;" vertex="1" parent="rP7UkFt_sAIfWVr7rBNn-58">
          <mxGeometry x="20" y="430" width="160" height="50" as="geometry" />
        </mxCell>
        <mxCell id="rP7UkFt_sAIfWVr7rBNn-101" value="*" style="text;resizeWidth=0;resizeHeight=0;points=[];part=1;verticalAlign=middle;align=center;" vertex="1" parent="rP7UkFt_sAIfWVr7rBNn-100">
          <mxGeometry x="1" y="0.5" width="20" height="20" relative="1" as="geometry">
            <mxPoint x="-20" y="-10" as="offset" />
          </mxGeometry>
        </mxCell>
        <mxCell id="rP7UkFt_sAIfWVr7rBNn-106" value="调用服务端保存呢信息接口&lt;br&gt;save_active_user_info&amp;nbsp;" style="html=1;dashed=0;rounded=1;absoluteArcSize=1;arcSize=20;verticalAlign=middle;align=center;" vertex="1" parent="rP7UkFt_sAIfWVr7rBNn-58">
          <mxGeometry x="20" y="540" width="160" height="50" as="geometry" />
        </mxCell>
        <mxCell id="rP7UkFt_sAIfWVr7rBNn-107" value="*" style="text;resizeWidth=0;resizeHeight=0;points=[];part=1;verticalAlign=middle;align=center;" vertex="1" parent="rP7UkFt_sAIfWVr7rBNn-106">
          <mxGeometry x="1" y="0.5" width="20" height="20" relative="1" as="geometry">
            <mxPoint x="-20" y="-10" as="offset" />
          </mxGeometry>
        </mxCell>
        <mxCell id="rP7UkFt_sAIfWVr7rBNn-108" style="edgeStyle=orthogonalEdgeStyle;rounded=0;orthogonalLoop=1;jettySize=auto;html=1;" edge="1" parent="rP7UkFt_sAIfWVr7rBNn-58" source="rP7UkFt_sAIfWVr7rBNn-100" target="rP7UkFt_sAIfWVr7rBNn-106">
          <mxGeometry relative="1" as="geometry" />
        </mxCell>
        <mxCell id="rP7UkFt_sAIfWVr7rBNn-55" value="服务端判断用户是否新增" style="html=1;dashed=0;rounded=1;absoluteArcSize=1;arcSize=20;verticalAlign=middle;align=center;" vertex="1" parent="1">
          <mxGeometry x="975" y="140" width="160" height="50" as="geometry" />
        </mxCell>
        <mxCell id="rP7UkFt_sAIfWVr7rBNn-56" value="*" style="text;resizeWidth=0;resizeHeight=0;points=[];part=1;verticalAlign=middle;align=center;" vertex="1" parent="rP7UkFt_sAIfWVr7rBNn-55">
          <mxGeometry x="1" y="0.5" width="20" height="20" relative="1" as="geometry">
            <mxPoint x="-20" y="-10" as="offset" />
          </mxGeometry>
        </mxCell>
        <mxCell id="rP7UkFt_sAIfWVr7rBNn-90" style="edgeStyle=orthogonalEdgeStyle;rounded=0;orthogonalLoop=1;jettySize=auto;html=1;entryX=0;entryY=0.5;entryDx=0;entryDy=0;" edge="1" parent="rP7UkFt_sAIfWVr7rBNn-55" source="rP7UkFt_sAIfWVr7rBNn-56" target="rP7UkFt_sAIfWVr7rBNn-87">
          <mxGeometry relative="1" as="geometry" />
        </mxCell>
        <mxCell id="rP7UkFt_sAIfWVr7rBNn-80" value="insert用户信息表" style="html=1;dashed=0;rounded=1;absoluteArcSize=1;arcSize=20;verticalAlign=middle;align=center;" vertex="1" parent="1">
          <mxGeometry x="1320" y="100" width="120" height="50" as="geometry" />
        </mxCell>
        <mxCell id="rP7UkFt_sAIfWVr7rBNn-81" value="*" style="text;resizeWidth=0;resizeHeight=0;points=[];part=1;verticalAlign=middle;align=center;" vertex="1" parent="rP7UkFt_sAIfWVr7rBNn-80">
          <mxGeometry x="1" y="0.5" width="20" height="20" relative="1" as="geometry">
            <mxPoint x="-20" y="-10" as="offset" />
          </mxGeometry>
        </mxCell>
        <mxCell id="rP7UkFt_sAIfWVr7rBNn-113" style="edgeStyle=orthogonalEdgeStyle;rounded=0;orthogonalLoop=1;jettySize=auto;html=1;entryX=0;entryY=0.5;entryDx=0;entryDy=0;" edge="1" parent="rP7UkFt_sAIfWVr7rBNn-80" source="rP7UkFt_sAIfWVr7rBNn-81" target="rP7UkFt_sAIfWVr7rBNn-95">
          <mxGeometry relative="1" as="geometry" />
        </mxCell>
        <mxCell id="rP7UkFt_sAIfWVr7rBNn-82" value="updata用户登录信息" style="html=1;dashed=0;rounded=1;absoluteArcSize=1;arcSize=20;verticalAlign=middle;align=center;" vertex="1" parent="1">
          <mxGeometry x="1320" y="200" width="130" height="50" as="geometry" />
        </mxCell>
        <mxCell id="rP7UkFt_sAIfWVr7rBNn-83" value="*" style="text;resizeWidth=0;resizeHeight=0;points=[];part=1;verticalAlign=middle;align=center;" vertex="1" parent="rP7UkFt_sAIfWVr7rBNn-82">
          <mxGeometry x="1" y="0.5" width="20" height="20" relative="1" as="geometry">
            <mxPoint x="-20" y="-10" as="offset" />
          </mxGeometry>
        </mxCell>
        <mxCell id="rP7UkFt_sAIfWVr7rBNn-115" style="edgeStyle=orthogonalEdgeStyle;rounded=0;orthogonalLoop=1;jettySize=auto;html=1;entryX=0;entryY=1;entryDx=0;entryDy=0;" edge="1" parent="rP7UkFt_sAIfWVr7rBNn-82" source="rP7UkFt_sAIfWVr7rBNn-83" target="rP7UkFt_sAIfWVr7rBNn-95">
          <mxGeometry relative="1" as="geometry" />
        </mxCell>
        <mxCell id="rP7UkFt_sAIfWVr7rBNn-91" style="edgeStyle=orthogonalEdgeStyle;rounded=0;orthogonalLoop=1;jettySize=auto;html=1;entryX=0;entryY=0.5;entryDx=0;entryDy=0;" edge="1" parent="1" source="rP7UkFt_sAIfWVr7rBNn-87" target="rP7UkFt_sAIfWVr7rBNn-80">
          <mxGeometry relative="1" as="geometry" />
        </mxCell>
        <mxCell id="rP7UkFt_sAIfWVr7rBNn-93" value="【用户信息不存在】" style="edgeLabel;html=1;align=center;verticalAlign=middle;resizable=0;points=[];" vertex="1" connectable="0" parent="rP7UkFt_sAIfWVr7rBNn-91">
          <mxGeometry x="0.3846" y="-5" relative="1" as="geometry">
            <mxPoint x="-40" y="-20" as="offset" />
          </mxGeometry>
        </mxCell>
        <mxCell id="rP7UkFt_sAIfWVr7rBNn-92" style="edgeStyle=orthogonalEdgeStyle;rounded=0;orthogonalLoop=1;jettySize=auto;html=1;entryX=0;entryY=0.5;entryDx=0;entryDy=0;" edge="1" parent="1" source="rP7UkFt_sAIfWVr7rBNn-87" target="rP7UkFt_sAIfWVr7rBNn-82">
          <mxGeometry relative="1" as="geometry" />
        </mxCell>
        <mxCell id="rP7UkFt_sAIfWVr7rBNn-94" value="【用户信息存在】" style="edgeLabel;html=1;align=center;verticalAlign=middle;resizable=0;points=[];" vertex="1" connectable="0" parent="rP7UkFt_sAIfWVr7rBNn-92">
          <mxGeometry x="0.24" y="1" relative="1" as="geometry">
            <mxPoint x="-56" y="12" as="offset" />
          </mxGeometry>
        </mxCell>
        <mxCell id="rP7UkFt_sAIfWVr7rBNn-87" value="" style="rhombus;" vertex="1" parent="1">
          <mxGeometry x="1200" y="150" width="30" height="30" as="geometry" />
        </mxCell>
        <mxCell id="rP7UkFt_sAIfWVr7rBNn-95" value="user_info" style="html=1;dashed=0;rounded=1;absoluteArcSize=1;arcSize=20;verticalAlign=middle;align=center;" vertex="1" parent="1">
          <mxGeometry x="1580" y="140" width="160" height="50" as="geometry" />
        </mxCell>
        <mxCell id="rP7UkFt_sAIfWVr7rBNn-96" value="*" style="text;resizeWidth=0;resizeHeight=0;points=[];part=1;verticalAlign=middle;align=center;" vertex="1" parent="rP7UkFt_sAIfWVr7rBNn-95">
          <mxGeometry x="1" y="0.5" width="20" height="20" relative="1" as="geometry">
            <mxPoint x="-20" y="-10" as="offset" />
          </mxGeometry>
        </mxCell>
        <mxCell id="rP7UkFt_sAIfWVr7rBNn-112" style="edgeStyle=orthogonalEdgeStyle;rounded=0;orthogonalLoop=1;jettySize=auto;html=1;" edge="1" parent="1" source="rP7UkFt_sAIfWVr7rBNn-109" target="rP7UkFt_sAIfWVr7rBNn-95">
          <mxGeometry relative="1" as="geometry" />
        </mxCell>
        <mxCell id="rP7UkFt_sAIfWVr7rBNn-109" value="服务端保存用户邮箱&lt;br&gt;将用户邮箱update到用户信息表中" style="html=1;dashed=0;rounded=1;absoluteArcSize=1;arcSize=20;verticalAlign=middle;align=center;" vertex="1" parent="1">
          <mxGeometry x="960" y="430" width="200" height="50" as="geometry" />
        </mxCell>
        <mxCell id="rP7UkFt_sAIfWVr7rBNn-110" value="*" style="text;resizeWidth=0;resizeHeight=0;points=[];part=1;verticalAlign=middle;align=center;" vertex="1" parent="rP7UkFt_sAIfWVr7rBNn-109">
          <mxGeometry x="1" y="0.5" width="20" height="20" relative="1" as="geometry">
            <mxPoint x="-20" y="-10" as="offset" />
          </mxGeometry>
        </mxCell>
        <mxCell id="rP7UkFt_sAIfWVr7rBNn-111" style="edgeStyle=orthogonalEdgeStyle;rounded=0;orthogonalLoop=1;jettySize=auto;html=1;entryX=0;entryY=0.5;entryDx=0;entryDy=0;" edge="1" parent="1" source="rP7UkFt_sAIfWVr7rBNn-106" target="rP7UkFt_sAIfWVr7rBNn-109">
          <mxGeometry relative="1" as="geometry" />
        </mxCell>
      </root>
    </mxGraphModel>
  </diagram>
</mxfile>
